<?xml version="1.0" encoding="UTF-8" standalone="no"?>
<!DOCTYPE svg PUBLIC "-//W3C//DTD SVG 1.1//EN"
 "http://www.w3.org/Graphics/SVG/1.1/DTD/svg11.dtd">
<!-- Generated by graphviz version 2.26.3 (20100126.1600)
 -->
<!-- Title: G Pages: 1 -->
<svg width="126pt" height="260pt"
 viewBox="0.00 0.00 126.00 260.00" xmlns="http://www.w3.org/2000/svg" xmlns:xlink="http://www.w3.org/1999/xlink">
<g id="graph1" class="graph" transform="scale(1 1) rotate(0) translate(4 256)">
<title>G</title>
<polygon fill="white" stroke="white" points="-4,5 -4,-256 123,-256 123,5 -4,5"/>
<g id="graph2" class="cluster"><title>cluster_global</title>
<polyline fill="none" stroke="gray" points="20,-8 98,-8 "/>
<path fill="none" stroke="gray" d="M98,-8C104,-8 110,-14 110,-20"/>
<polyline fill="none" stroke="gray" points="110,-20 110,-232 "/>
<path fill="none" stroke="gray" d="M110,-232C110,-238 104,-244 98,-244"/>
<polyline fill="none" stroke="gray" points="98,-244 20,-244 "/>
<path fill="none" stroke="gray" d="M20,-244C14,-244 8,-238 8,-232"/>
<polyline fill="none" stroke="gray" points="8,-232 8,-20 "/>
<path fill="none" stroke="gray" d="M8,-20C8,-14 14,-8 20,-8"/>
<text text-anchor="middle" x="59" y="-230.1" font-family="Times Roman,serif" font-size="11.00" fill="gray">global</text>
</g>
<!-- \\DZLoader -->
<g id="node2" class="node"><title>\\DZLoader</title>
<a xlink:href="dzloader.class.html" xlink:title="DZLoader" target="_parent">
<polygon fill="none" stroke="black" points="94,-214 24,-214 24,-178 94,-178 94,-214"/>
<text text-anchor="middle" x="59" y="-193.1" font-family="Courier,monospace" font-size="11.00">DZLoader</text>
</a>
</g>
<!-- \\DZConfig -->
<g id="node3" class="node"><title>\\DZConfig</title>
<a xlink:href="dzconfig.class.html" xlink:title="«abstract»&lt;br/&gt;DZConfig" target="_parent">
<polygon fill="none" stroke="black" points="101,-160 17,-160 17,-124 101,-124 101,-160"/>
<text text-anchor="start" x="25" y="-147.433" font-family="Courier,monospace" font-size="11.00">«abstract»</text>
<text text-anchor="start" x="31.5" y="-134.233" font-family="Courier,monospace" font-size="11.00">DZConfig</text>
</a>
</g>
<!-- \\DZFilter -->
<g id="node4" class="node"><title>\\DZFilter</title>
<a xlink:href="dzfilter.class.html" xlink:title="DZFilter" target="_parent">
<polygon fill="none" stroke="black" points="94,-106 24,-106 24,-70 94,-70 94,-106"/>
<text text-anchor="middle" x="59" y="-85.1" font-family="Courier,monospace" font-size="11.00">DZFilter</text>
</a>
</g>
<!-- \\DZ -->
<g id="node5" class="node"><title>\\DZ</title>
<a xlink:href="dz.class.html" xlink:title="DZ" target="_parent">
<polygon fill="none" stroke="black" points="86,-52 32,-52 32,-16 86,-16 86,-52"/>
<text text-anchor="middle" x="59" y="-31.1" font-family="Courier,monospace" font-size="11.00">DZ</text>
</a>
</g>
</g>
</svg>
