<?xml version="1.0" encoding="UTF-8" standalone="no"?>
<!DOCTYPE svg PUBLIC "-//W3C//DTD SVG 1.1//EN"
 "http://www.w3.org/Graphics/SVG/1.1/DTD/svg11.dtd">
<!-- Generated by graphviz version 2.26.3 (20100126.1600)
 -->
<!-- Title: G Pages: 1 -->
<svg width="126pt" height="260pt"
 viewBox="0.00 0.00 126.00 260.00" xmlns="http://www.w3.org/2000/svg" xmlns:xlink="http://www.w3.org/1999/xlink">
<g id="graph1" class="graph" transform="scale(1 1) rotate(0) translate(4 256)">
<title>G</title>
<polygon fill="white" stroke="white" points="-4,5 -4,-256 123,-256 123,5 -4,5"/>
<g id="graph2" class="cluster"><title>cluster_Global</title>
<polyline fill="none" stroke="gray" points="20,-8 98,-8 "/>
<path fill="none" stroke="gray" d="M98,-8C104,-8 110,-14 110,-20"/>
<polyline fill="none" stroke="gray" points="110,-20 110,-232 "/>
<path fill="none" stroke="gray" d="M110,-232C110,-238 104,-244 98,-244"/>
<polyline fill="none" stroke="gray" points="98,-244 20,-244 "/>
<path fill="none" stroke="gray" d="M20,-244C14,-244 8,-238 8,-232"/>
<polyline fill="none" stroke="gray" points="8,-232 8,-20 "/>
<path fill="none" stroke="gray" d="M8,-20C8,-14 14,-8 20,-8"/>
<text text-anchor="middle" x="59" y="-230.1" font-family="Times Roman,serif" font-size="11.00" fill="gray">\</text>
</g>
<!-- \\DZFilter -->
<g id="node2" class="node"><title>\\DZFilter</title>
<polygon fill="none" stroke="black" points="94,-214 24,-214 24,-178 94,-178 94,-214"/>
<text text-anchor="middle" x="59" y="-193.1" font-family="Courier,monospace" font-size="11.00">DZFilter</text>
</g>
<!-- \\DZLoader -->
<g id="node3" class="node"><title>\\DZLoader</title>
<polygon fill="none" stroke="black" points="94,-160 24,-160 24,-124 94,-124 94,-160"/>
<text text-anchor="middle" x="59" y="-139.1" font-family="Courier,monospace" font-size="11.00">DZLoader</text>
</g>
<!-- \\DZ -->
<g id="node4" class="node"><title>\\DZ</title>
<polygon fill="none" stroke="black" points="86,-106 32,-106 32,-70 86,-70 86,-106"/>
<text text-anchor="middle" x="59" y="-85.1" font-family="Courier,monospace" font-size="11.00">DZ</text>
</g>
<!-- \\DZConfig -->
<g id="node5" class="node"><title>\\DZConfig</title>
<polygon fill="none" stroke="black" points="101,-52 17,-52 17,-16 101,-16 101,-52"/>
<text text-anchor="start" x="25" y="-39.4333" font-family="Courier,monospace" font-size="11.00">«abstract»</text>
<text text-anchor="start" x="31.5" y="-26.2333" font-family="Courier,monospace" font-size="11.00">DZConfig</text>
</g>
</g>
</svg>
